<?xml version="1.0" standalone="no"?>
<!DOCTYPE svg PUBLIC "-//W3C//DTD SVG 20010904//EN"
 "http://www.w3.org/TR/2001/REC-SVG-20010904/DTD/svg10.dtd">
<svg version="1.0" xmlns="http://www.w3.org/2000/svg"
 width="224.000000pt" height="224.000000pt" viewBox="0 0 224.000000 224.000000"
 preserveAspectRatio="xMidYMid meet">
<metadata>
Created by potrace 1.11, written by Peter Selinger 2001-2013
</metadata>
<g transform="translate(0.000000,224.000000) scale(0.100000,-0.100000)"
fill="#000000" stroke="none">
<path d="M1113 2183 c-11 -16 -52 -110 -92 -210 -39 -100 -78 -194 -85 -208
l-13 -25 -27 35 c-31 41 -56 46 -56 11 0 -13 -7 -26 -15 -30 -8 -3 -15 -12
-15 -21 0 -15 -95 -309 -105 -325 -4 -7 -53 5 -165 39 -51 16 -58 14 -62 -19
l-3 -29 -85 30 c-47 16 -94 32 -104 36 -17 5 -18 2 -13 -27 6 -29 5 -32 -13
-27 -34 9 -26 -29 63 -306 l25 -77 -24 -6 c-19 -5 -22 -9 -14 -24 14 -26 13
-30 -10 -30 -12 0 -20 -7 -20 -18 0 -31 109 -255 140 -287 l31 -32 -74 -48
c-56 -37 -73 -53 -69 -67 2 -10 -2 -20 -12 -24 -47 -18 -3 -61 224 -219 70
-49 91 -59 120 -57 113 9 113 9 122 -25 5 -18 12 -34 17 -37 10 -7 121 33 192
70 27 13 53 22 58 20 4 -3 11 -31 15 -62 10 -86 54 -154 101 -154 40 0 111 55
135 105 22 46 23 48 5 61 -28 21 -12 17 50 -11 30 -14 68 -28 85 -31 26 -6 30
-3 30 14 0 11 7 27 15 36 8 8 15 19 15 24 0 6 25 3 59 -5 l59 -15 84 58 c189
131 258 187 258 210 0 6 7 17 15 24 28 23 15 45 -49 84 -36 22 -74 47 -87 56
l-22 17 22 29 c11 16 52 97 90 179 l70 150 -55 3 c-47 3 -53 5 -46 20 30 58
139 418 130 428 -3 2 -39 -8 -80 -24 -41 -16 -87 -32 -101 -36 -25 -6 -27 -4
-27 25 0 37 -2 37 -140 -5 -47 -14 -89 -21 -93 -17 -10 10 -113 311 -121 356
-10 51 -25 53 -63 10 l-32 -38 -30 64 c-28 62 -84 200 -131 324 -36 94 -47
102 -77 58z"/>
</g>
</svg>
